<svg width="13" height="13" viewBox="0 0 13 13" fill="none" xmlns="http://www.w3.org/2000/svg">
<path d="M3.14844 6.1001C2.55176 6.1001 2.01432 5.97314 1.53613 5.71924C1.06217 5.46533 0.687663 5.10986 0.412598 4.65283C0.137533 4.19157 0 3.65837 0 3.05322C0 2.44385 0.137533 1.91064 0.412598 1.45361C0.687663 0.99235 1.06217 0.634766 1.53613 0.380859C2.01432 0.126953 2.55176 0 3.14844 0H9.21045C9.80713 0 10.3424 0.126953 10.8164 0.380859C11.2946 0.634766 11.6712 0.99235 11.9463 1.45361C12.2214 1.91064 12.3589 2.44385 12.3589 3.05322C12.3589 3.65837 12.2214 4.19157 11.9463 4.65283C11.6712 5.10986 11.2946 5.46533 10.8164 5.71924C10.3424 5.97314 9.80713 6.1001 9.21045 6.1001H3.14844ZM3.14844 4.82422H9.21045C9.55322 4.82422 9.86214 4.75016 10.1372 4.60205C10.4123 4.44971 10.6302 4.24235 10.791 3.97998C10.9561 3.71338 11.0386 3.40446 11.0386 3.05322C11.0386 2.69775 10.9561 2.38883 10.791 2.12646C10.6302 1.85986 10.4123 1.65251 10.1372 1.50439C9.86214 1.35628 9.55322 1.28223 9.21045 1.28223H3.14844C2.80566 1.28223 2.49463 1.35628 2.21533 1.50439C1.94027 1.65251 1.72233 1.85986 1.56152 2.12646C1.40072 2.38883 1.32031 2.69775 1.32031 3.05322C1.32031 3.40446 1.40072 3.71338 1.56152 3.97998C1.72233 4.24235 1.94027 4.44971 2.21533 4.60205C2.49463 4.75016 2.80566 4.82422 3.14844 4.82422ZM3.14844 4.41797C2.88184 4.41797 2.64062 4.36084 2.4248 4.24658C2.21322 4.13232 2.04395 3.97363 1.91699 3.77051C1.79427 3.56315 1.73291 3.32194 1.73291 3.04688C1.73291 2.77181 1.79427 2.53271 1.91699 2.32959C2.04395 2.12223 2.21322 1.96143 2.4248 1.84717C2.64062 1.73291 2.88184 1.67578 3.14844 1.67578H4.2085C4.47087 1.67578 4.70785 1.73291 4.91943 1.84717C5.13525 1.96143 5.30452 2.12223 5.42725 2.32959C5.5542 2.53695 5.61768 2.77816 5.61768 3.05322C5.61768 3.32406 5.5542 3.56315 5.42725 3.77051C5.30452 3.97363 5.13525 4.13232 4.91943 4.24658C4.70785 4.36084 4.47087 4.41797 4.2085 4.41797H3.14844ZM2.87549 12.6064C2.33805 12.6064 1.8514 12.488 1.41553 12.251C0.983887 12.0182 0.638997 11.6945 0.380859 11.2798C0.126953 10.8651 0 10.3848 0 9.83887C0 9.29297 0.126953 8.81266 0.380859 8.39795C0.638997 7.98324 0.983887 7.65951 1.41553 7.42676C1.8514 7.18978 2.33805 7.07129 2.87549 7.07129H9.4834C10.0208 7.07129 10.5054 7.18978 10.937 7.42676C11.3729 7.65951 11.7178 7.98324 11.9717 8.39795C12.2298 8.81266 12.3589 9.29297 12.3589 9.83887C12.3589 10.3848 12.2298 10.8651 11.9717 11.2798C11.7178 11.6945 11.3729 12.0182 10.937 12.251C10.5054 12.488 10.0208 12.6064 9.4834 12.6064H2.87549ZM8.43604 11.3433H9.59766C9.89388 11.3433 10.1584 11.2798 10.3911 11.1528C10.6281 11.0259 10.8143 10.8503 10.9497 10.626C11.0851 10.4017 11.1528 10.1393 11.1528 9.83887C11.1528 9.53841 11.0851 9.27604 10.9497 9.05176C10.8143 8.82324 10.6281 8.64551 10.3911 8.51855C10.1584 8.3916 9.89388 8.32812 9.59766 8.32812H8.43604C8.14404 8.32812 7.88167 8.3916 7.64893 8.51855C7.41618 8.64551 7.22998 8.82113 7.09033 9.04541C6.95492 9.26969 6.88721 9.53206 6.88721 9.83252C6.88721 10.1372 6.95492 10.4017 7.09033 10.626C7.22998 10.8503 7.41618 11.0259 7.64893 11.1528C7.88167 11.2798 8.14404 11.3433 8.43604 11.3433Z" fill="black"/>
<path d="M3.14844 6.1001C2.55176 6.1001 2.01432 5.97314 1.53613 5.71924C1.06217 5.46533 0.687663 5.10986 0.412598 4.65283C0.137533 4.19157 0 3.65837 0 3.05322C0 2.44385 0.137533 1.91064 0.412598 1.45361C0.687663 0.99235 1.06217 0.634766 1.53613 0.380859C2.01432 0.126953 2.55176 0 3.14844 0H9.21045C9.80713 0 10.3424 0.126953 10.8164 0.380859C11.2946 0.634766 11.6712 0.99235 11.9463 1.45361C12.2214 1.91064 12.3589 2.44385 12.3589 3.05322C12.3589 3.65837 12.2214 4.19157 11.9463 4.65283C11.6712 5.10986 11.2946 5.46533 10.8164 5.71924C10.3424 5.97314 9.80713 6.1001 9.21045 6.1001H3.14844ZM3.14844 4.82422H9.21045C9.55322 4.82422 9.86214 4.75016 10.1372 4.60205C10.4123 4.44971 10.6302 4.24235 10.791 3.97998C10.9561 3.71338 11.0386 3.40446 11.0386 3.05322C11.0386 2.69775 10.9561 2.38883 10.791 2.12646C10.6302 1.85986 10.4123 1.65251 10.1372 1.50439C9.86214 1.35628 9.55322 1.28223 9.21045 1.28223H3.14844C2.80566 1.28223 2.49463 1.35628 2.21533 1.50439C1.94027 1.65251 1.72233 1.85986 1.56152 2.12646C1.40072 2.38883 1.32031 2.69775 1.32031 3.05322C1.32031 3.40446 1.40072 3.71338 1.56152 3.97998C1.72233 4.24235 1.94027 4.44971 2.21533 4.60205C2.49463 4.75016 2.80566 4.82422 3.14844 4.82422ZM3.14844 4.41797C2.88184 4.41797 2.64062 4.36084 2.4248 4.24658C2.21322 4.13232 2.04395 3.97363 1.91699 3.77051C1.79427 3.56315 1.73291 3.32194 1.73291 3.04688C1.73291 2.77181 1.79427 2.53271 1.91699 2.32959C2.04395 2.12223 2.21322 1.96143 2.4248 1.84717C2.64062 1.73291 2.88184 1.67578 3.14844 1.67578H4.2085C4.47087 1.67578 4.70785 1.73291 4.91943 1.84717C5.13525 1.96143 5.30452 2.12223 5.42725 2.32959C5.5542 2.53695 5.61768 2.77816 5.61768 3.05322C5.61768 3.32406 5.5542 3.56315 5.42725 3.77051C5.30452 3.97363 5.13525 4.13232 4.91943 4.24658C4.70785 4.36084 4.47087 4.41797 4.2085 4.41797H3.14844ZM2.87549 12.6064C2.33805 12.6064 1.8514 12.488 1.41553 12.251C0.983887 12.0182 0.638997 11.6945 0.380859 11.2798C0.126953 10.8651 0 10.3848 0 9.83887C0 9.29297 0.126953 8.81266 0.380859 8.39795C0.638997 7.98324 0.983887 7.65951 1.41553 7.42676C1.8514 7.18978 2.33805 7.07129 2.87549 7.07129H9.4834C10.0208 7.07129 10.5054 7.18978 10.937 7.42676C11.3729 7.65951 11.7178 7.98324 11.9717 8.39795C12.2298 8.81266 12.3589 9.29297 12.3589 9.83887C12.3589 10.3848 12.2298 10.8651 11.9717 11.2798C11.7178 11.6945 11.3729 12.0182 10.937 12.251C10.5054 12.488 10.0208 12.6064 9.4834 12.6064H2.87549ZM8.43604 11.3433H9.59766C9.89388 11.3433 10.1584 11.2798 10.3911 11.1528C10.6281 11.0259 10.8143 10.8503 10.9497 10.626C11.0851 10.4017 11.1528 10.1393 11.1528 9.83887C11.1528 9.53841 11.0851 9.27604 10.9497 9.05176C10.8143 8.82324 10.6281 8.64551 10.3911 8.51855C10.1584 8.3916 9.89388 8.32812 9.59766 8.32812H8.43604C8.14404 8.32812 7.88167 8.3916 7.64893 8.51855C7.41618 8.64551 7.22998 8.82113 7.09033 9.04541C6.95492 9.26969 6.88721 9.53206 6.88721 9.83252C6.88721 10.1372 6.95492 10.4017 7.09033 10.626C7.22998 10.8503 7.41618 11.0259 7.64893 11.1528C7.88167 11.2798 8.14404 11.3433 8.43604 11.3433Z" fill="black" fill-opacity="0.2"/>
</svg>
